<svg xmlns="http://www.w3.org/2000/svg" width="1280" height="720" viewBox="0 0 1280 720">
  <rect width="1280" height="720" fill="#f7f5ef"/>
  <rect x="18" y="18" width="1244" height="684" fill="none" stroke="#1a1a1a" stroke-width="6" rx="18"/>
  <rect x="40" y="588" width="65" height="72" fill="#ffffff" stroke="#1a1a1a" stroke-width="3" rx="4"/><rect x="48" y="602" width="8" height="8" fill="#ffe72e" opacity="0.9"/><rect x="48" y="620" width="8" height="8" fill="#ff86ad" opacity="0.9"/><rect x="48" y="638" width="8" height="8" fill="#ff86ad" opacity="0.9"/><rect x="124" y="542" width="69" height="118" fill="#f7f5ef" stroke="#1a1a1a" stroke-width="3" rx="4"/><rect x="132" y="556" width="8" height="8" fill="#ffe72e" opacity="0.9"/><rect x="132" y="574" width="8" height="8" fill="#ff86ad" opacity="0.9"/><rect x="132" y="592" width="8" height="8" fill="#ffe72e" opacity="0.9"/><rect x="132" y="610" width="8" height="8" fill="#ffe72e" opacity="0.9"/><rect x="132" y="628" width="8" height="8" fill="#ffe72e" opacity="0.9"/><rect x="132" y="646" width="8" height="8" fill="#ffe72e" opacity="0.9"/><rect x="208" y="540" width="34" height="120" fill="#ffffff" stroke="#1a1a1a" stroke-width="3" rx="4"/><rect x="216" y="554" width="8" height="8" fill="#ff86ad" opacity="0.9"/><rect x="216" y="572" width="8" height="8" fill="#1a1a1a" opacity="0.9"/><rect x="216" y="590" width="8" height="8" fill="#ffe72e" opacity="0.9"/><rect x="216" y="608" width="8" height="8" fill="#1a1a1a" opacity="0.9"/><rect x="216" y="626" width="8" height="8" fill="#ffe72e" opacity="0.9"/><rect x="216" y="644" width="8" height="8" fill="#ff86ad" opacity="0.9"/><rect x="267" y="581" width="40" height="79" fill="#ffffff" stroke="#1a1a1a" stroke-width="3" rx="4"/><rect x="275" y="595" width="8" height="8" fill="#ff86ad" opacity="0.9"/><rect x="275" y="613" width="8" height="8" fill="#1a1a1a" opacity="0.9"/><rect x="275" y="631" width="8" height="8" fill="#1a1a1a" opacity="0.9"/><rect x="326" y="567" width="62" height="93" fill="#ffffff" stroke="#1a1a1a" stroke-width="3" rx="4"/><rect x="334" y="581" width="8" height="8" fill="#ff86ad" opacity="0.9"/><rect x="334" y="599" width="8" height="8" fill="#ffe72e" opacity="0.9"/><rect x="334" y="617" width="8" height="8" fill="#ffe72e" opacity="0.9"/><rect x="334" y="635" width="8" height="8" fill="#1a1a1a" opacity="0.9"/><rect x="398" y="560" width="70" height="100" fill="#f7f5ef" stroke="#1a1a1a" stroke-width="3" rx="4"/><rect x="406" y="574" width="8" height="8" fill="#ffe72e" opacity="0.9"/><rect x="406" y="592" width="8" height="8" fill="#ffe72e" opacity="0.9"/><rect x="406" y="610" width="8" height="8" fill="#ff86ad" opacity="0.9"/><rect x="406" y="628" width="8" height="8" fill="#ffe72e" opacity="0.9"/><rect x="406" y="646" width="8" height="8" fill="#1a1a1a" opacity="0.9"/><rect x="487" y="580" width="47" height="80" fill="#f7f5ef" stroke="#1a1a1a" stroke-width="3" rx="4"/><rect x="495" y="594" width="8" height="8" fill="#ffe72e" opacity="0.9"/><rect x="495" y="612" width="8" height="8" fill="#ffe72e" opacity="0.9"/><rect x="495" y="630" width="8" height="8" fill="#1a1a1a" opacity="0.9"/><rect x="557" y="582" width="48" height="78" fill="#f7f5ef" stroke="#1a1a1a" stroke-width="3" rx="4"/><rect x="565" y="596" width="8" height="8" fill="#1a1a1a" opacity="0.9"/><rect x="565" y="614" width="8" height="8" fill="#1a1a1a" opacity="0.9"/><rect x="565" y="632" width="8" height="8" fill="#ff86ad" opacity="0.9"/><rect x="616" y="583" width="48" height="77" fill="#ffffff" stroke="#1a1a1a" stroke-width="3" rx="4"/><rect x="624" y="597" width="8" height="8" fill="#ffe72e" opacity="0.9"/><rect x="624" y="615" width="8" height="8" fill="#ffe72e" opacity="0.9"/><rect x="624" y="633" width="8" height="8" fill="#ff86ad" opacity="0.9"/><rect x="684" y="541" width="42" height="119" fill="#f7f5ef" stroke="#1a1a1a" stroke-width="3" rx="4"/><rect x="692" y="555" width="8" height="8" fill="#ffe72e" opacity="0.9"/><rect x="692" y="573" width="8" height="8" fill="#1a1a1a" opacity="0.9"/><rect x="692" y="591" width="8" height="8" fill="#1a1a1a" opacity="0.9"/><rect x="692" y="609" width="8" height="8" fill="#1a1a1a" opacity="0.9"/><rect x="692" y="627" width="8" height="8" fill="#1a1a1a" opacity="0.9"/><rect x="692" y="645" width="8" height="8" fill="#ff86ad" opacity="0.9"/><rect x="752" y="553" width="66" height="107" fill="#ffffff" stroke="#1a1a1a" stroke-width="3" rx="4"/><rect x="760" y="567" width="8" height="8" fill="#ff86ad" opacity="0.9"/><rect x="760" y="585" width="8" height="8" fill="#1a1a1a" opacity="0.9"/><rect x="760" y="603" width="8" height="8" fill="#1a1a1a" opacity="0.9"/><rect x="760" y="621" width="8" height="8" fill="#1a1a1a" opacity="0.9"/><rect x="760" y="639" width="8" height="8" fill="#1a1a1a" opacity="0.9"/><rect x="841" y="598" width="69" height="62" fill="#ffffff" stroke="#1a1a1a" stroke-width="3" rx="4"/><rect x="849" y="612" width="8" height="8" fill="#ff86ad" opacity="0.9"/><rect x="849" y="630" width="8" height="8" fill="#ffe72e" opacity="0.9"/><rect x="923" y="582" width="58" height="78" fill="#ffffff" stroke="#1a1a1a" stroke-width="3" rx="4"/><rect x="931" y="596" width="8" height="8" fill="#ff86ad" opacity="0.9"/><rect x="931" y="614" width="8" height="8" fill="#1a1a1a" opacity="0.9"/><rect x="931" y="632" width="8" height="8" fill="#1a1a1a" opacity="0.9"/><rect x="1003" y="578" width="60" height="82" fill="#f7f5ef" stroke="#1a1a1a" stroke-width="3" rx="4"/><rect x="1011" y="592" width="8" height="8" fill="#ffe72e" opacity="0.9"/><rect x="1011" y="610" width="8" height="8" fill="#ffe72e" opacity="0.9"/><rect x="1011" y="628" width="8" height="8" fill="#1a1a1a" opacity="0.9"/><rect x="1011" y="646" width="8" height="8" fill="#1a1a1a" opacity="0.9"/><rect x="1089" y="554" width="46" height="106" fill="#f7f5ef" stroke="#1a1a1a" stroke-width="3" rx="4"/><rect x="1097" y="568" width="8" height="8" fill="#1a1a1a" opacity="0.9"/><rect x="1097" y="586" width="8" height="8" fill="#ff86ad" opacity="0.9"/><rect x="1097" y="604" width="8" height="8" fill="#ffe72e" opacity="0.9"/><rect x="1097" y="622" width="8" height="8" fill="#ff86ad" opacity="0.9"/><rect x="1097" y="640" width="8" height="8" fill="#ff86ad" opacity="0.9"/><rect x="1159" y="561" width="67" height="99" fill="#f7f5ef" stroke="#1a1a1a" stroke-width="3" rx="4"/><rect x="1167" y="575" width="8" height="8" fill="#1a1a1a" opacity="0.9"/><rect x="1167" y="593" width="8" height="8" fill="#ff86ad" opacity="0.9"/><rect x="1167" y="611" width="8" height="8" fill="#ffe72e" opacity="0.9"/><rect x="1167" y="629" width="8" height="8" fill="#1a1a1a" opacity="0.9"/><rect x="1167" y="647" width="8" height="8" fill="#ffe72e" opacity="0.9"/>
  
  <rect x="40" y="40" width="300" height="74" rx="14" fill="#ffe72e" stroke="#1a1a1a" stroke-width="4"/>
  <text x="64" y="88" font-family="Georgia, serif" font-weight="700" font-size="30" fill="#1a1a1a">VIDEO PLACEHOLDER</text>
  <rect x="40" y="618" width="127" height="56" rx="12" fill="#6948dc" stroke="#1a1a1a" stroke-width="4"/>
  <text x="64" y="654" font-family="Georgia, serif" font-weight="700" font-size="26" fill="#ffffff">agent 2</text>
</svg>
